<svg width="24" height="24" viewBox="0 0 24 24" fill="none" xmlns="http://www.w3.org/2000/svg">
<path d="M14.59 7.17995H7.5L9.15 5.52995C9.29294 5.39066 9.37357 5.19954 9.37357 4.99995C9.37357 4.80036 9.29294 4.60924 9.15 4.46995C8.85718 4.1775 8.38281 4.1775 8.09 4.46995L5.16 7.39995C5.09221 7.46931 5.03795 7.5507 5 7.63995C4.93001 7.82351 4.93001 8.02639 5 8.20995C5.03539 8.30349 5.08988 8.38863 5.16 8.45995L8.09 11.39C8.23284 11.5271 8.422 11.6056 8.62 11.61C8.81841 11.6076 9.00828 11.5288 9.15 11.39C9.29294 11.2507 9.37357 11.0595 9.37357 10.86C9.37357 10.6604 9.29294 10.4692 9.15 10.33L7.5 8.67995H14.59C16.6335 8.67995 18.29 10.3365 18.29 12.38V14.55C18.3019 16.5442 16.7232 18.185 14.73 18.25H6.83C6.41578 18.25 6.08 18.5857 6.08 19C6.08 19.4142 6.41578 19.75 6.83 19.75H14.76C17.5604 19.6579 19.7778 17.3518 19.76 14.55V12.38C19.76 9.51974 17.4502 7.19645 14.59 7.17995Z" fill="#222222"/>
</svg>
